<svg xmlns="http://www.w3.org/2000/svg" width="85.424" height="20.565" viewBox="0 0 85.424 20.565"><path d="M51.414 19.522a1.336 1.336 0 01-.281-.544l.477-.394a1.058 1.058 0 00.383.7 1.311 1.311 0 00.865.283.844.844 0 00.91-.766c0-.395-.262-.6-1.043-.782a2.04 2.04 0 01-1.1-.482 1 1 0 01-.311-.722c0-.654.605-1.1 1.5-1.1a1.371 1.371 0 011.438.871l-.416.395a.972.972 0 00-1.07-.749c-.539 0-.871.216-.871.582 0 .389.594.527.986.627.627.139 1.492.377 1.492 1.31 0 .787-.643 1.314-1.619 1.314a1.687 1.687 0 01-1.34-.543zm-3.543.4v-4.094h.559v4.094zm-3.219 0l-.986-1.842h-1.027v1.842h-.561v-4.094h1.736a1.165 1.165 0 011.277 1.12 1 1 0 01-.861 1.049l1.021 1.925zm-2.014-2.324h1.076c.512 0 .789-.228.789-.649s-.277-.643-.838-.643h-1.027zm-3.555 2.324l-.434-.987h-2.068l-.434.987h-.576l1.8-4.094h.5l1.785 4.094zm-2.285-1.492h1.631l-.811-1.869zm-6.059 1.492v-4.094h1.682a1.218 1.218 0 011.314 1.231c0 .732-.555 1.2-1.426 1.2h-1.01v1.658zm.555-2.146h.6c.582 0 1.215-.017 1.215-.716 0-.5-.295-.737-.9-.737h-.916zM.504 7.499c0-2.475 1.754-4.039 4.438-4.039 1.422 0 2.809.316 2.809.854v.256a.274.274 0 01-.289.288.867.867 0 01-.3-.1 4.97 4.97 0 00-2.125-.466 2.952 2.952 0 00-3.24 3.145c0 1.92 1.215 3.057 3.328 3.057a5.473 5.473 0 002.158-.438 1.644 1.644 0 01.16-.061c.018 0 .035-.006.057-.006a.238.238 0 01.256.261v.316c0 .488-1.377.76-2.791.76C2.204 11.329.504 9.893.504 7.499zm30.217-.062a3.873 3.873 0 014.1-3.966c2.09 0 3.705 1.325 3.705 3.146v.388a.308.308 0 01-.334.289H32.03a3 3 0 00.615 2.19 2.66 2.66 0 001 .722 4.106 4.106 0 001.6.288 4.485 4.485 0 002.1-.5 1.04 1.04 0 01.365-.133.257.257 0 01.256.288v.267c0 .532-1.453.9-2.812.9-2.699.002-4.435-1.496-4.435-3.876zm1.314-.959h5.2a2.276 2.276 0 00-2.5-2.186 2.6 2.6 0 00-2.702 2.189zM9.357 9.268c0-1.1.8-1.714 2.73-2.3l2.2-.654c.434-.122.5-.222.5-.561v-.254c0-.811-.527-1.215-1.791-1.215a5.241 5.241 0 00-2.541.626.558.558 0 01-.268.089.283.283 0 01-.271-.3v-.294c0-.222.15-.333.461-.438a8.945 8.945 0 012.762-.477 3.343 3.343 0 012.309.582 1.677 1.677 0 01.621 1.52v5.326a.313.313 0 01-.328.288h-.41c-.2 0-.365-.078-.365-.288v-.095c-.012 0-.023-.006-.045-.006a.473.473 0 00-.084.022l-.238.078a6.453 6.453 0 01-2.2.4c-1.834-.005-3.043-.737-3.043-2.046zm3.551-1.664c-1.742.51-2.27.942-2.27 1.681 0 .7.705 1.209 1.848 1.209 1.57 0 2.3-.338 2.3-.82v-2.6zm64.486-.267c0-2.49 1.875-4 4.826-4a6.825 6.825 0 012.291.377c.211.066.416.155.416.41v.7a.364.364 0 01-.365.388.854.854 0 01-.346-.1 4.458 4.458 0 00-2.029-.466 2.445 2.445 0 00-2.773 2.635 2.508 2.508 0 002.807 2.7 4.652 4.652 0 001.936-.433l.084-.028a.678.678 0 01.322-.1.371.371 0 01.365.4v.594a.426.426 0 01-.311.454 7.738 7.738 0 01-2.629.428c-2.859.003-4.595-1.447-4.595-3.955zM56.902 9.123a1.96 1.96 0 011.182-1.736 12.466 12.466 0 012.514-.937l1.293-.354c.393-.117.426-.194.426-.327v-.333c0-.511-.354-.788-1.4-.788a6.317 6.317 0 00-2.613.549.691.691 0 01-.383.122.337.337 0 01-.383-.344v-.594a.469.469 0 01.25-.493 9.794 9.794 0 013.361-.549c1.986 0 3.117.7 3.117 2.152v5.33a.387.387 0 01-.4.355h-.91c-.271 0-.432-.111-.455-.355a1.217 1.217 0 00-.359.084l-.316.116a5.821 5.821 0 01-1.8.277c-1.799.001-3.122-.851-3.122-2.171zm3.746-1.387c-1.449.405-1.727.688-1.727 1.331 0 .571.434.916 1.51.916a4.81 4.81 0 001.447-.223c.365-.144.438-.232.438-.626V7.247zm-17.314 3.2l-.061-.028c-.061-.033-.1-.056-.139-.072-.006.233-.232.339-.437.339h-1.088a.382.382 0 01-.4-.355V.852a.382.382 0 01.4-.355h1.121a.378.378 0 01.4.355V3.82a.285.285 0 00.094-.039l.15-.062a4.666 4.666 0 011.941-.382c2.719 0 4.471 1.5 4.471 3.883 0 2.457-1.881 4.077-4.648 4.077a4.263 4.263 0 01-1.806-.356zm.482-6.146c-.555.183-.682.344-.682.688v3.733c0 .405.605.776 1.848.776a3.261 3.261 0 001.953-.6 2.376 2.376 0 00.836-2.125c0-1.653-1.031-2.618-2.889-2.618a3.816 3.816 0 00-1.067.155zm-18.232 6.4a.319.319 0 01-.334-.288V3.884a.319.319 0 01.334-.294h.449c.166 0 .3.077.3.261v.161c0 .077.021.083.066.083a.3.3 0 00.1-.033 6.316 6.316 0 012.291-.472h.344c.295 0 .467.094.467.394v.327c0 .239-.133.344-.367.344a1.35 1.35 0 01-.205-.011 10.839 10.839 0 00-1.254-.133c-.914 0-1.242.3-1.242.977v5.414a.319.319 0 01-.344.288zm-6.318 0a.308.308 0 01-.322-.288V3.884a.309.309 0 01.322-.294h.449c.172 0 .311.077.311.261v.161c0 .077.016.083.066.083a.346.346 0 00.1-.033 6.308 6.308 0 012.291-.472h.338c.295 0 .473.094.473.394v.327c0 .239-.145.344-.367.344a1.427 1.427 0 01-.211-.011 11.026 11.026 0 00-1.248-.133c-.92 0-1.248.3-1.248.977v5.414a.319.319 0 01-.344.288zm54.186-.017a.382.382 0 01-.4-.355v-4.6c0-1.064-.576-1.575-1.92-1.575a4.062 4.062 0 00-1.225.178c-.488.149-.605.316-.605.627v5.369a.378.378 0 01-.4.355h-1.127a.382.382 0 01-.4-.355V3.811a.386.386 0 01.4-.36h.871c.322 0 .467.089.477.371h.012a1.275 1.275 0 00.471-.11c.234-.078.361-.116.439-.134a5.683 5.683 0 011.68-.243c1.971 0 3.273 1 3.273 2.673v4.81a.387.387 0 01-.4.355zm-20.664 0a.387.387 0 01-.4-.355V.85a.387.387 0 01.4-.355h1.121a.382.382 0 01.4.355v9.968a.387.387 0 01-.4.355zM33.704 2.499c0-.178.145-.267.266-.354L35.579.968a1.54 1.54 0 01.775-.35.739.739 0 01.539.272.51.51 0 01.127.288c0 .233-.217.377-.682.594l-2.014.938a.859.859 0 01-.295.083.318.318 0 01-.325-.294z" data-name="Logo Footer Small" fill="#040405" stroke="transparent"/></svg>