<?xml version="1.0" encoding="UTF-8"?>
<svg width="315px" height="45px" viewBox="0 0 315 45" version="1.1" xmlns="http://www.w3.org/2000/svg" xmlns:xlink="http://www.w3.org/1999/xlink">
    <!-- Generator: Sketch 49.1 (51147) - http://www.bohemiancoding.com/sketch -->
    <title>logo_PB2</title>
    <desc>Created with Sketch.</desc>
    <defs>
        <polygon id="path-1" points="0.11551049 0.0252012431 35.9764219 0.0252012431 35.9764219 37.8149975 0.11551049 37.8149975"></polygon>
        <polygon id="path-3" points="0 0.30382862 17.3884582 0.30382862 17.3884582 23.7245825 0 23.7245825"></polygon>
        <polygon id="path-5" points="0.0902196317 0.153479396 9.06977402 0.153479396 9.06977402 9.13293281 0.0902196317 9.13293281"></polygon>
    </defs>
    <g id="Styles_desktop" stroke="none" stroke-width="1" fill="none" fill-rule="evenodd">
        <g id="Icons" transform="translate(-648.000000, -1753.000000)">
            <g id="logo_PB2" transform="translate(648.000000, 1753.000000)">
                <g id="Logo" transform="translate(0.000000, 5.598145)">
                    <g id="Group-3" transform="translate(0.219689, 0.097732)">
                        <mask id="mask-2" fill="white">
                            <use xlink:href="#path-1"></use>
                        </mask>
                        <g id="Clip-2"></g>
                    </g>
                </g>
                <g id="Page-1" transform="translate(64.800000, 9.000000)">
                    <g id="Group-3" transform="translate(0.000000, 0.856506)">
                        <mask id="mask-4" fill="white">
                            <use xlink:href="#path-3"></use>
                        </mask>
                        <g id="Clip-2"></g>
                        <path d="M8.28975538,0.305848085 L1.0201836,0.30382862 C0.361837773,0.30382862 -0.00015145993,0.668342185 -0.00015145993,1.32264908 L-0.00015145993,22.6381099 C-0.00015145993,23.2363766 0.487044648,23.7245825 1.08430164,23.7245825 L4.1261219,23.7245825 C4.72236916,23.7245825 5.20855553,23.2363766 5.20855553,22.6381099 L5.20855553,17.848442 C5.20855553,17.4773652 5.51046566,17.1744454 5.88002789,17.1744454 L8.28975538,17.1744454 C13.477258,17.1744454 17.3884582,13.5495044 17.3884582,8.74115646 C17.3884582,3.93078908 13.477258,0.305848085 8.28975538,0.305848085 M8.28975538,12.1081107 L5.88002789,12.1081107 C5.51046566,12.1081107 5.20855553,11.80822 5.20855553,11.4371432 L5.20855553,5.82807713 C5.20855553,5.45801004 5.51046566,5.15761451 5.88002789,5.15761451 L8.3180279,5.15761451 C10.884264,5.1712459 12.03334,6.9130351 12.03334,8.63361991 C12.03334,10.3627874 10.8751764,12.1081107 8.28975538,12.1081107" id="Fill-1" fill="#15284B" mask="url(#mask-4)"></path>
                    </g>
                    <path d="M57.2271151,1.16018306 L42.44816,1.16018306 C41.8524176,1.16018306 41.3652215,1.64687431 41.3642118,2.24362643 L41.3642118,4.86388322 C41.3652215,5.46063534 41.8524176,5.94783145 42.44816,5.94783145 L46.5007229,5.94783145 C46.8697802,5.94783145 47.1727001,6.24873185 47.1727001,6.61829408 L47.1727001,23.4954741 C47.1727001,24.0927311 47.6588865,24.5809369 48.2551337,24.5809369 L51.2989734,24.5809369 C51.8962304,24.5809369 52.3824168,24.0927311 52.3824168,23.4944643 L52.3824168,6.61829408 C52.3824168,6.24873185 52.6838221,5.94783145 53.0548989,5.94783145 L57.2271151,5.94783145 C57.8253818,5.94783145 58.3095487,5.46063534 58.3095487,4.86388322 L58.3095487,2.24514103 C58.3095487,1.64687431 57.8253818,1.16018306 57.2271151,1.16018306" id="Fill-4" fill="#15284B"></path>
                    <path d="M91.0904758,1.16018306 L76.3110158,1.16018306 C75.7137588,1.16018306 75.2275724,1.64687431 75.2265627,2.24514103 L75.2265627,4.86388322 C75.2275724,5.46063534 75.7137588,5.94783145 76.3110158,5.94783145 L80.3625689,5.94783145 C80.7331409,5.94783145 81.0335364,6.24873185 81.0335364,6.61829408 L81.0335364,23.4954741 C81.0340413,24.0927311 81.5207325,24.5809369 82.1184944,24.5809369 L85.1618292,24.5809369 C85.7580765,24.5809369 86.2447677,24.0927311 86.2447677,23.4944643 L86.2447677,6.61829408 C86.2452726,6.24873185 86.546173,5.94783145 86.916745,5.94783145 L91.0904758,5.94783145 C91.6862182,5.94783145 92.1718997,5.46063534 92.1718997,4.86388322 L92.1718997,2.24514103 C92.1718997,1.64687431 91.6862182,1.16018306 91.0904758,1.16018306" id="Fill-6" fill="#15284B"></path>
                    <path d="M153.106299,1.16018306 C152.508538,1.16018306 152.023361,1.64687431 152.023361,2.24362643 L152.023361,4.86388322 C152.023361,5.46063534 152.508538,5.94783145 153.106299,5.94783145 L157.158862,5.94783145 C157.527415,5.94783145 157.82882,6.24873185 157.82882,6.61829408 L157.82882,23.4954741 C157.830335,24.0927311 158.315511,24.5809369 158.910749,24.5809369 L161.955093,24.5809369 C162.554875,24.5809369 163.040556,24.0927311 163.040556,23.4944643 L163.040556,6.61829408 C163.040556,6.24873185 163.340447,5.94783145 163.710514,5.94783145 L167.88475,5.94783145 C168.482007,5.94783145 168.967183,5.46063534 168.967183,4.86388322 L168.967183,2.24514103 C168.967183,1.64687431 168.482007,1.16018306 167.88475,1.16018306 L153.106299,1.16018306 Z" id="Fill-8" fill="#15284B"></path>
                    <path d="M145.849703,3.17545841 C144.169002,1.54928362 141.823898,0.651126239 139.250089,0.651126239 C136.676785,0.651126239 134.332185,1.54928362 132.64795,3.17545841 C131.038436,4.73751515 130.1529,6.81958432 130.1529,9.03594797 L130.1529,23.4958275 C130.1529,24.0925796 130.638077,24.5807855 131.234829,24.5807855 L134.325622,24.5807855 C134.924393,24.5807855 135.40957,24.0925796 135.40957,23.4943129 L135.40957,16.8709701 C135.411084,16.5034274 135.710975,16.2045465 136.080537,16.2045465 L142.428728,16.2045465 C142.793241,16.2055562 143.093132,16.5054468 143.094142,16.8709701 L143.094142,23.4943129 C143.094142,24.0925796 143.580328,24.5807855 144.17708,24.5807855 L147.333505,24.5807855 C147.987307,24.5807855 148.346772,24.2182914 148.346772,23.5599455 L148.346772,9.03594797 C148.346772,6.81958432 147.461236,4.73751515 145.849703,3.17545841 Z M143.094142,10.4995558 C143.094142,10.8681083 142.794756,11.1690086 142.426203,11.1705232 L136.080537,11.1705232 C135.710975,11.1705232 135.40957,10.8681083 135.40957,10.4995558 L135.40957,9.24647727 C135.40957,7.3042561 136.845915,5.29337309 139.250089,5.29337309 C141.655777,5.29337309 143.094142,7.3042561 143.094142,9.24647727 L143.094142,10.4995558 Z" id="Fill-10" fill="#15284B"></path>
                    <path d="M211.284684,3.17545841 C209.601964,1.54928362 207.258879,0.651126239 204.68507,0.651126239 C202.111261,0.651126239 199.767671,1.54928362 198.085961,3.17545841 C196.474427,4.73701029 195.587377,6.81655512 195.587377,9.03594797 L195.587377,23.4958275 C195.587377,24.0925796 196.073058,24.5807855 196.671325,24.5807855 L199.761612,24.5807855 C200.357355,24.5807855 200.844551,24.0925796 200.844551,23.4943129 L200.844551,16.8734945 C200.846066,16.5054468 201.146966,16.2045465 201.516528,16.2045465 L207.865224,16.2045465 C208.229737,16.2055562 208.528113,16.5054468 208.528113,16.8709701 L208.530133,23.4943129 C208.530133,24.0925796 209.013795,24.5807855 209.612061,24.5807855 L212.766467,24.5807855 C213.424308,24.5807855 213.783268,24.2182914 213.783268,23.5599455 L213.783268,9.03594797 C213.783268,6.81958432 212.896218,4.73751515 211.284684,3.17545841 Z M208.530133,10.4995558 C208.530133,10.8681083 208.229737,11.1690086 207.863204,11.1705232 L201.516528,11.1705232 C201.146966,11.1705232 200.844551,10.8681083 200.844551,10.4995558 L200.844551,9.24647727 C200.844551,7.3042561 202.280391,5.29337309 204.68507,5.29337309 C207.091263,5.29337309 208.530133,7.3042561 208.530133,9.24647727 L208.530133,10.4995558 Z" id="Fill-12" fill="#15284B"></path>
                    <path d="M121.359137,12.1788425 C121.359137,12.1788425 121.274319,12.1404726 121.205658,12.1096758 C121.261698,12.059694 121.33036,12.0001198 121.33036,12.0001198 C122.591516,10.8919379 123.343262,9.18447967 123.343262,7.43006881 C123.343262,3.91417897 120.47966,1.16215204 116.825436,1.16215204 L108.915694,1.16215204 C108.319952,1.18032723 107.857999,1.65439682 107.857999,2.24509054 L107.857999,23.4944139 C107.857999,24.0926806 108.344185,24.5808864 108.941947,24.5808864 L118.014397,24.5808864 C122.519825,24.5808864 125.547004,21.9692124 125.547004,18.08477 C125.547004,15.4635035 124.059163,13.3657835 121.359137,12.1788425 Z M112.664832,6.19668012 C112.664832,5.82711789 112.966742,5.52773209 113.337314,5.52773209 L116.191324,5.52773209 C117.845267,5.53126616 118.585401,6.72174121 118.585401,7.8995946 C118.585401,8.95930924 117.952803,10.0927344 116.180217,10.0927344 L113.337314,10.0927344 C112.966742,10.0927344 112.664832,9.79132912 112.664832,9.42126203 L112.664832,6.19668012 Z M117.285875,20.2163161 L113.337314,20.2163161 C112.966742,20.2163161 112.664832,19.9159206 112.664832,19.5458535 L112.664832,15.4342213 C112.664832,15.0626396 112.966742,14.7632538 113.337314,14.7632538 L117.296477,14.7632538 C119.19124,14.7703219 120.055572,16.1778895 120.055572,17.487513 C120.055572,18.8021852 119.188716,20.2163161 117.285875,20.2163161 Z" id="Fill-14" fill="#15284B"></path>
                    <path d="M233.692676,1.16018306 C233.093904,1.16018306 232.608727,1.64687431 232.608727,2.24514103 L232.608727,16.6515047 C232.608727,18.4937623 231.262249,20.445576 228.765179,20.445576 C226.26912,20.445576 224.92567,18.4937623 224.92567,16.6515047 L224.92567,2.24514103 C224.92567,1.64687431 224.438474,1.16018306 223.841217,1.16018306 L220.74891,1.16018306 C220.150643,1.16018306 219.662942,1.64687431 219.662942,2.24514103 L219.662942,16.6515047 C219.662942,21.4628818 223.575152,25.0898423 228.765179,25.0898423 C233.953187,25.0898423 237.866406,21.4628818 237.866406,16.6515047 L237.866406,2.24514103 C237.866406,1.64687431 237.378201,1.16018306 236.782458,1.16018306 L233.692676,1.16018306 Z" id="Fill-16" fill="#15284B"></path>
                    <path d="M68.3683561,1.16018306 L65.1680078,1.16018306 C64.5692362,1.16018306 64.0835547,1.64687431 64.0835547,2.24514103 L64.0835547,23.4944643 C64.0835547,24.0927311 64.5692362,24.5809369 65.1680078,24.5809369 L68.3683561,24.5809369 C68.9671277,24.5809369 69.4523043,24.0927311 69.4523043,23.4944643 L69.4523043,2.24514103 C69.4523043,1.64687431 68.9671277,1.16018306 68.3683561,1.16018306" id="Fill-18" fill="#15284B"></path>
                    <path d="M27.184937,5.94762951 L35.7282868,5.94762951 C36.3255438,5.94762951 36.8112253,5.4604334 36.8112253,4.86620561 L36.8112253,2.24695855 C36.8112253,1.64768209 36.3255438,1.16250545 35.7282868,1.16250545 L22.7638216,1.16250545 C22.1685841,1.18017577 21.7071362,1.65424536 21.7071362,2.24493908 L21.7071362,23.4942624 C21.7071362,24.093034 22.1928177,24.580735 22.7905796,24.580735 L35.7282868,24.580735 C36.3255438,24.580735 36.8112253,24.0935389 36.8112253,23.495777 L36.8112253,20.8780445 C36.8112253,20.2797778 36.3255438,19.7935914 35.7282868,19.7935914 L27.184937,19.7956109 C26.8148699,19.7956109 26.5134646,19.4937008 26.5134646,19.1236337 L26.5134646,15.4340698 C26.5134646,15.062993 26.8148699,14.7631023 27.184937,14.7631023 L33.4791068,14.7631023 C34.0778784,14.7631023 34.5645697,14.2774208 34.5645697,13.6791541 L34.5645697,11.1780458 C34.5645697,10.5787693 34.0778784,10.0925829 33.4791068,10.0925829 L27.184937,10.0925829 C26.8148699,10.0925829 26.5134646,9.79117766 26.5134646,9.42111057 L26.5134646,6.6201116 C26.5134646,6.24903477 26.8148699,5.94762951 27.184937,5.94762951" id="Fill-20" fill="#15284B"></path>
                    <path d="M175.241663,1.16235399 C174.648445,1.18052918 174.184978,1.6540939 174.184978,2.24478762 L174.184978,23.4946158 C174.184978,24.0928825 174.673184,24.5810884 175.270946,24.5810884 L188.206633,24.5810884 C188.802881,24.5810884 189.291591,24.0938923 189.291591,23.4956255 L189.291591,20.8778931 C189.291591,20.2796264 188.802881,19.79344 188.206633,19.79344 L179.664798,19.7954594 C179.294731,19.7954594 178.992316,19.4935493 178.992316,19.1239871 L178.992316,15.4344232 C178.992316,15.0628415 179.294731,14.7629508 179.664798,14.7629508 L185.956444,14.7629508 C186.55774,14.7629508 187.042411,14.2772693 187.042411,13.6795075 L187.042411,11.1778943 C187.042411,10.5786178 186.55774,10.0924315 185.956444,10.0924315 L179.664798,10.0924315 C179.294731,10.0924315 178.992316,9.7910262 178.992316,9.42095911 L178.992316,6.620465 C178.992316,6.24888331 179.294731,5.94747805 179.664798,5.94747805 L188.206633,5.94747805 C188.802881,5.94747805 189.291591,5.46028194 189.291591,4.86605415 L189.291591,2.24680709 C189.291591,1.64753063 188.802881,1.16235399 188.206633,1.16235399 L175.241663,1.16235399 Z" id="Fill-22" fill="#15284B"></path>
                    <g id="Group-26" transform="translate(240.316422, 0.351639)">
                        <mask id="mask-6" fill="white">
                            <use xlink:href="#path-5"></use>
                        </mask>
                        <g id="Clip-25"></g>
                        <path d="M0.0902196317,4.64366048 C0.0902196317,7.11851574 2.10564643,9.13293281 4.58100656,9.13293281 C7.05737641,9.13293281 9.06977402,7.11851574 9.06977402,4.64366048 C9.06977402,2.16577603 7.05737641,0.153378422 4.58100656,0.153378422 C2.10564643,0.153378422 0.0902196317,2.16577603 0.0902196317,4.64366048 M0.977269955,4.64366048 C0.977269955,2.65701107 2.59385228,1.04244821 4.58100656,1.04244821 C6.56715111,1.04244821 8.18171396,2.65701107 8.18171396,4.64366048 C8.18171396,6.62930016 6.56715111,8.24588248 4.58100656,8.24588248 C2.59385228,8.24588248 0.977269955,6.62930016 0.977269955,4.64366048" id="Fill-24" fill="#15284B" mask="url(#mask-6)"></path>
                    </g>
                    <path d="M246.785932,6.87830029 C246.785932,6.87830029 246.240172,5.8387803 245.991777,5.35865232 C246.483012,5.12237483 246.781388,4.65688798 246.781388,4.05963099 C246.781388,3.18772666 246.165451,2.60410106 245.251643,2.60410106 L243.699179,2.60410106 C243.499757,2.60410106 243.338199,2.76515346 243.338199,2.96356596 L243.338199,7.04541108 C243.338199,7.24382359 243.499757,7.40437111 243.699179,7.40437111 L244.006138,7.40437111 C244.20455,7.40437111 244.366107,7.24382359 244.366107,7.04541108 L244.366107,5.52222905 L244.912878,5.52222905 C245.07393,5.83373164 245.786802,7.21151214 245.786802,7.21151214 C245.84991,7.33167035 245.972088,7.40437111 246.105372,7.40437111 L246.467866,7.40437111 C246.593073,7.40437111 246.710202,7.33924334 246.774825,7.23170679 C246.807642,7.17465689 246.826322,7.11104372 246.826322,7.04541108 C246.826322,6.9893709 246.81269,6.93181613 246.785932,6.87830029 M245.211254,4.53269084 L244.366107,4.53269084 L244.366107,3.59616361 L245.211254,3.59616361 C245.752471,3.59616361 245.752471,3.93593872 245.752471,4.06417479 C245.752471,4.19140113 245.752471,4.53269084 245.211254,4.53269084" id="Fill-27" fill="#15284B"></path>
                </g>
                <g id="Page-1" fill="#15284B">
                    <path d="M23.7103567,2.82522058 L23.6803683,2.82522058 C23.3577664,1.72428466 23.0340285,0.717857476 22.7884421,0.000181747573 C22.5596674,0.990478835 22.2915897,1.95578563 21.9898887,2.89610214 C13.7592227,3.66489437 7.27265184,10.5460847 7.17950621,18.9978012 C7.16610233,20.1580322 7.27515087,21.2921371 7.49324796,22.3871662 C7.14724602,22.6211662 6.80397029,22.843807 6.46478388,23.0532711 C13.2051198,27.2395992 18.6759489,27.6487584 21.9842091,26.8249876 C26.0160518,20.0435313 25.736615,12.4337604 24.7708538,7.20283806 C24.6618052,6.61034097 24.5170887,5.96331961 24.3535159,5.30039534 C31.7158829,5.73181864 37.5131761,11.8780672 37.4313897,19.3324439 C37.4054907,21.6897099 36.7911839,23.9043041 35.7347761,25.8367351 L35.7347761,25.8371895 C35.7281878,25.8499118 35.4153548,26.4242342 35.0370926,26.9797002 C31.6956635,25.4434788 29.0900849,26.2265837 26.028547,27.1496342 C21.8567586,28.4039196 16.8552926,29.9090167 8.55760718,25.7599468 C11.064815,31.4527351 16.7257975,35.4573157 23.3484518,35.5300148 C32.3824421,35.6297487 39.7838849,28.3889254 39.8843004,19.3590245 C39.9840344,10.3259429 32.7441198,2.92518175 23.7103567,2.82522058 M9.71829262,20.7366711 C9.65536252,20.1755254 9.62582854,19.6041565 9.63196252,19.0250633 C9.70716058,12.2488322 14.6163897,6.66100311 21.0436654,5.49872738 C18.349712,12.1102497 13.9841353,17.2911915 9.71829262,20.7366711 M25.6421062,25.8635429 C28.2608616,25.0772575 30.7930596,24.3177798 33.7907586,25.1181507 C32.8845198,20.1562148 30.8712111,14.1805817 26.4799625,9.56078563 C27.210815,15.8444808 26.279813,21.5965643 23.7514771,26.411739 C24.3980441,26.2379429 25.024846,26.0502885 25.6421062,25.8635429" id="Fill-1"></path>
                    <g id="Group-5" transform="translate(0.000000, 24.831489)">
                        <path d="M4.01305456,3.1710635 C3.67977495,3.28579165 3.26698078,3.17719748 3.09454777,2.67625573 L2.92052447,2.17077029 C2.91302738,2.14918777 2.91461767,2.12601495 2.92461379,2.10534117 C2.9346099,2.08512175 2.95233029,2.06921883 2.97345845,2.06194893 L4.15050117,1.65710621 C4.19502932,1.64188485 4.24341961,1.66596641 4.25886816,1.71026738 L4.43493612,2.2218868 C4.60305262,2.71942078 4.34406233,3.05747126 4.01305456,3.1710635 M5.57154,1.8240868 L5.04697107,0.298315922 C4.98767592,0.127018835 4.85000214,0.059772233 4.67825068,0.118840194 L0.205670097,1.65710621 C0.128427379,1.68345961 0.0668603883,1.73843825 0.0309652427,1.8122732 C-0.00470271845,1.88474505 -0.0097007767,1.96744019 0.0166526214,2.04377417 L0.236112816,2.68238971 C0.290637087,2.8405101 0.464206019,2.9252499 0.623007961,2.87072563 L1.62829922,2.52495087 C1.67260019,2.50950233 1.7207633,2.53312951 1.73643903,2.57788485 L1.91046233,3.08337029 C2.29690311,4.20611592 3.3748934,4.78225573 4.41857883,4.42353146 C4.89793806,4.25882272 5.28256136,3.92145379 5.50134,3.47390039 C5.74238272,2.97931981 5.76737301,2.39363825 5.57154,1.8240868" id="Fill-3"></path>
                    </g>
                    <path d="M33.8245637,36.472126 L33.8247909,36.472126 L30.9536336,38.057192 C30.8070996,38.1378425 30.7532569,38.323225 30.833453,38.4693047 L31.1144802,38.9793338 C31.1960394,39.126095 31.3816491,39.1794833 31.5284103,39.0988328 L32.3153773,38.6640017 C32.3349151,38.6526425 32.3583151,38.6501435 32.380352,38.656959 C32.4023889,38.6633202 32.4207909,38.67786 32.4314685,38.6973979 L34.24122,41.9765784 C34.3216433,42.1228852 34.507253,42.1765008 34.6546957,42.0960775 L35.2460569,41.7682503 C35.3162569,41.7305377 35.368055,41.6655629 35.3905462,41.588093 C35.413719,41.5099416 35.4041773,41.4274736 35.3651016,41.3559105 L33.5551229,38.0767299 C33.5328588,38.0356095 33.5476258,37.9838115 33.588519,37.9608658 L34.3995676,37.5137668 C34.5458744,37.4324348 34.5992627,37.2470522 34.5186122,37.1002911 L34.237585,36.5911707 C34.1564802,36.4446367 33.9713249,36.390794 33.8245637,36.472126" id="Fill-6"></path>
                    <path d="M8.58859515,32.8830204 L8.17966311,33.2967233 C8.06175437,33.4159951 8.06289029,33.6088748 8.18216214,33.7270107 L8.82168641,34.3590379 C8.85485534,34.392434 8.85530971,34.4460495 8.82191359,34.4794456 L6.18861845,37.1425019 C6.07093689,37.2615466 6.07184563,37.4548806 6.19111748,37.5727893 L6.67138544,38.0476049 C6.79065728,38.1657408 6.98376408,38.1641505 7.10167282,38.0451058 L9.73519515,35.3822767 C9.75132524,35.3661466 9.77222621,35.3572864 9.79517184,35.3572864 C9.81789029,35.3572864 9.83947282,35.3656922 9.85560291,35.3815951 L10.5142107,36.0333874 C10.5719155,36.0904107 10.6482495,36.1213078 10.7295816,36.1208534 C10.8111408,36.120399 10.8872476,36.0879117 10.9442709,36.030434 L11.3527485,35.6171854 C11.409999,35.5597078 11.4413505,35.4831466 11.4411233,35.4020417 C11.4404417,35.3204825 11.4084087,35.2443757 11.3509311,35.1871252 L9.01865534,32.8809757 C8.89961068,32.7628398 8.70650388,32.7642029 8.58859515,32.8830204" id="Fill-8"></path>
                    <path d="M14.1358491,37.4902759 L13.9073016,38.0250682 C13.8418724,38.180008 13.9134355,38.3592565 14.0674666,38.4246856 L14.8941909,38.7781847 C14.9150918,38.7870449 14.9312219,38.8036293 14.9396278,38.8245303 C14.9482608,38.8454313 14.9478064,38.8688313 14.9389462,38.8899594 L13.4663365,42.3333944 C13.400453,42.4874254 13.4726977,42.666674 13.6265016,42.7325575 L14.2476239,42.9988177 C14.4018821,43.0647012 14.5809035,42.9920021 14.646787,42.8375167 L16.1200783,39.3947633 C16.1284841,39.3738623 16.1455229,39.3577322 16.1666511,39.348872 C16.187552,39.3404662 16.2104977,39.341375 16.2309443,39.350008 L17.0831132,39.7141847 C17.1574025,39.7464449 17.2400977,39.7473536 17.3157501,39.7169109 C17.3911753,39.6864682 17.4504705,39.6287633 17.4825035,39.5540196 L17.7108239,39.0194546 C17.7426297,38.9451652 17.7435384,38.8626973 17.7135501,38.7870449 C17.6835617,38.7116196 17.6256297,38.6523245 17.5511132,38.6202915 L14.5352394,37.3305652 C14.3814355,37.2651361 14.2024142,37.3366992 14.1358491,37.4902759" id="Fill-10"></path>
                    <path d="M41.4842243,31.670287 L40.7070262,32.8443763 C40.6952126,32.8632326 40.6759019,32.8757278 40.6534107,32.8804986 C40.6313738,32.8854967 40.6084282,32.880953 40.589799,32.8682307 L40.3573893,32.7148812 C40.0247913,32.4940579 39.8423621,32.0199239 40.1138476,31.6089472 C40.3876049,31.1966074 40.8955893,31.1786598 41.2284146,31.3992559 L41.4599155,31.5523783 C41.4849058,31.5685083 41.4983097,31.5962249 41.4983097,31.6239414 C41.4983097,31.6400715 41.4939932,31.6559744 41.4842243,31.670287 M44.7259194,32.2555142 C44.711834,32.1844054 44.6661699,32.1232928 44.5907447,32.0737666 L41.9033796,30.294685 C41.4783175,30.013885 40.9676068,29.9191491 40.4643932,30.0302423 C39.9409602,30.1454249 39.4736417,30.4787045 39.1483136,30.9694229 C38.8970476,31.3497297 38.765735,31.7722928 38.765735,32.1889491 C38.765735,32.3091297 38.7766398,32.4290831 38.7989039,32.547219 C38.8929583,33.0527045 39.1789835,33.4866268 39.6038184,33.7681083 L42.2802786,35.5390113 C42.3477524,35.5839938 42.4288573,35.5998967 42.5083718,35.5837666 C42.5883408,35.5674093 42.6562689,35.5215181 42.7010243,35.4542715 L43.0797408,34.8817666 C43.1719777,34.7415938 43.1340379,34.5525763 42.9940922,34.459885 L41.7686592,33.6490637 C41.7300379,33.6233918 41.7195874,33.5702307 41.7452592,33.531155 L42.5220029,32.3566113 C42.5483563,32.3182171 42.6008359,32.3077666 42.6401388,32.3332113 L43.8646631,33.144487 C43.9323641,33.1896967 44.0134689,33.2046909 44.0934379,33.188788 C44.1731796,33.1726579 44.2415621,33.126085 44.2865447,33.0586113 L44.6729854,32.4747472 C44.7222845,32.4000035 44.7404592,32.3263957 44.7259194,32.2555142" id="Fill-12"></path>
                    <path d="M29.274286,40.9146955 L27.9118608,41.2727383 C27.8895967,41.278645 27.8664239,41.2756917 27.8466588,41.2641052 C27.8273482,41.2525188 27.8134899,41.2345713 27.8080375,41.2129887 L27.7371559,40.943548 C27.6353773,40.55688 27.8157617,40.0820645 28.2928491,39.9568858 C28.7706181,39.8317072 29.1611482,40.1563538 29.263154,40.5432489 L29.3340355,40.8104179 L29.3365346,40.8322276 C29.3365346,40.8701674 29.3117715,40.9046994 29.274286,40.9146955 M31.3225812,43.2862742 L30.5028996,40.1683946 C30.3722685,39.6754043 30.0539831,39.2648819 29.6052938,39.0127072 C29.1372938,38.7496276 28.5670608,38.6871518 27.9986452,38.8366392 C27.4302297,38.9863538 26.9645016,39.3209965 26.6864278,39.7799091 C26.419486,40.2208742 26.344288,40.7347654 26.4737831,41.2270742 L27.2891482,44.3308683 C27.332086,44.4928509 27.4988394,44.5900858 27.6608219,44.5476023 L28.3239734,44.3728975 C28.4021249,44.3526781 28.4677812,44.3031518 28.5091287,44.2329518 C28.5504763,44.1625247 28.5616083,44.0805111 28.5409346,44.0021324 L28.1676705,42.5813208 C28.1556297,42.5356567 28.183119,42.4884023 28.2287831,42.4768159 L29.590754,42.118546 C29.6355093,42.107414 29.6816278,42.1344489 29.6932142,42.1794315 L30.0678414,43.6006975 C30.1094161,43.7624528 30.2763967,43.8596878 30.4390608,43.8183402 L31.1165249,43.6400004 C31.2580608,43.6020606 31.3353035,43.5086878 31.3353035,43.3816917 C31.3353035,43.3521577 31.330987,43.3194431 31.3225812,43.2862742" id="Fill-14"></path>
                    <g id="Group-18" transform="translate(21.355340, 39.371295)">
                        <path d="M2.58944854,4.20845592 C2.49175922,4.30546369 2.35431262,4.35612583 2.19255728,4.35589864 L1.3163068,4.3536268 C1.29336117,4.3536268 1.27223301,4.3447666 1.25587573,4.3286365 C1.23997282,4.31250641 1.23111262,4.29092388 1.23111262,4.26843262 L1.23361165,3.35605981 C1.23383883,3.30925981 1.27223301,3.27086563 1.31926019,3.27086563 L2.19755534,3.27359184 C2.574,3.27472777 2.74529709,3.55530058 2.74438835,3.81588117 C2.74393398,3.96718602 2.68781942,4.11031223 2.58944854,4.20845592 Z M1.23906408,1.30594718 L1.23906408,1.30617437 C1.23906408,1.28368311 1.24792427,1.2618734 1.26405437,1.2457433 C1.28041165,1.22984039 1.30176699,1.22143456 1.32425825,1.22143456 L1.95764854,1.22279767 C2.30296893,1.22484233 2.42451262,1.47360932 2.42428544,1.68670835 C2.42360388,1.78598796 2.38907184,2.10972583 1.95287767,2.10881709 L1.32244078,2.10677243 C1.32244078,2.10677243 1.27791262,2.09791223 1.26178252,2.08155495 C1.24587961,2.06565204 1.23701942,2.04475107 1.23701942,2.02180544 L1.23906408,1.30594718 Z M3.1751301,2.60453359 C3.44366214,2.34690641 3.60678058,1.97296078 3.6079165,1.58583845 L3.6079165,1.58197631 C3.6079165,0.767974369 2.94703689,0.128904466 2.10191068,0.127314175 L0.346001942,0.12299767 C0.177658252,0.127314175 0.0472543689,0.260444272 0.0470271845,0.426061748 L0.0347592233,5.14195689 C0.0345320388,5.22306175 0.0661106796,5.29916854 0.12358835,5.35710058 C0.180838835,5.41435107 0.256945631,5.44661126 0.33827767,5.44661126 L2.35113204,5.45251806 C3.38891068,5.4547899 4.08818447,4.85206951 4.0906835,3.95173748 L4.0906835,3.94878408 C4.0906835,3.35719573 3.76467379,2.88351612 3.1751301,2.60453359 Z" id="Fill-16"></path>
                    </g>
                    <path d="M41.9791229,24.8911707 L41.7621617,25.541827 C41.709455,25.7006289 41.7955579,25.8735163 41.9539054,25.9262231 L44.9877268,26.9390115 C45.3446336,27.0587377 45.6372472,27.4481318 45.4752647,27.9338522 C45.4048375,28.1455882 45.2717074,28.305526 45.0899598,28.3957183 C44.9063948,28.4872736 44.6871617,28.5022678 44.487921,28.4352483 L41.4550083,27.4233687 C41.37822,27.3976969 41.295752,27.4029221 41.2221443,27.4394988 C41.1498996,27.4758483 41.0960569,27.5380969 41.0701579,27.6151124 L40.8529695,28.2659959 C40.8272977,28.3432386 40.8327501,28.4259338 40.869554,28.4986328 C40.9054491,28.5711047 40.9674705,28.6254017 41.0447132,28.6510736 L44.0780802,29.6640891 C44.5590297,29.8242542 45.0695132,29.7901765 45.5154763,29.5677629 C46.0071035,29.3224037 46.3835482,28.8725784 46.5741559,28.3007551 C46.9503734,27.1746017 46.4442064,26.0613979 45.3971132,25.7113066 L42.3642006,24.6987454 C42.2051715,24.6455843 42.0329656,24.7321416 41.9791229,24.8911707" id="Fill-19"></path>
                    <path d="M12.3903909,36.025186 C12.3106491,36.0406346 12.2413579,36.0860715 12.1961482,36.1539996 L9.56171709,40.064753 C9.51628019,40.1315452 9.49969573,40.2124229 9.51514427,40.2928462 C9.53082,40.3723608 9.57648408,40.4414249 9.64373068,40.4868617 L10.2332744,40.8842074 C10.3000666,40.9296443 10.3811715,40.9460016 10.460686,40.9300986 C10.540655,40.9144229 10.6099462,40.8687588 10.6553831,40.8008307 L13.2900414,36.8907588 C13.3836414,36.7514948 13.3468375,36.5615685 13.2080278,36.4679685 L12.6184841,36.0713045 C12.5512375,36.0263219 12.4701326,36.0095103 12.3903909,36.025186" id="Fill-21"></path>
                    <path d="M37.2514369,33.6233464 L35.1213553,35.5578221 C34.9993573,35.674595 34.9932233,35.8608862 35.1054524,35.9831115 L38.2746757,39.474028 C38.3873592,39.5987522 38.5800117,39.6080668 38.7045087,39.4953833 L40.8309553,37.5652241 C40.9547709,37.4525406 40.9638583,37.2601153 40.8518563,37.1356183 L40.4604175,36.7055581 C40.4065748,36.6453542 40.3318311,36.6103678 40.250499,36.6062784 C40.1696214,36.6021891 40.0914699,36.6301328 40.0310388,36.6844299 L38.627266,37.9591619 C38.5929612,37.991195 38.5388913,37.9882416 38.5066311,37.9537095 L37.9566175,37.347127 C37.9250388,37.312595 37.9273107,37.258525 37.9627515,37.2267192 L38.9971223,36.2875386 C39.1209379,36.1748551 39.1302524,35.9824299 39.0180233,35.85816 L38.644532,35.4462746 C38.5313942,35.322459 38.3382874,35.3131445 38.2144718,35.425828 L37.180101,36.3652357 C37.162835,36.3802299 37.1407981,36.3881814 37.1180796,36.3870454 C37.0958155,36.3854551 37.0749146,36.3761406 37.0601476,36.3595561 L36.6416738,35.898826 C36.6269068,35.8826959 36.6198641,35.8622493 36.6198641,35.8415755 C36.6198641,35.8184027 36.6289515,35.7950027 36.6478078,35.7784183 L38.0515806,34.5039134 C38.1115573,34.4491619 38.1465437,34.3741911 38.150633,34.2933134 L38.1510874,34.2833173 C38.1510874,34.2024396 38.1229165,34.1306493 38.0718,34.0740804 L37.6812699,33.6442474 C37.6265184,33.5835891 37.5513204,33.5488299 37.4702155,33.5445134 C37.3891107,33.5408784 37.311868,33.5690493 37.2514369,33.6233464" id="Fill-23"></path>
                    <path d="M6.31884058,29.4025089 L2.33538816,31.9263012 C2.19339786,32.016039 2.15114155,32.204375 2.24087942,32.3463652 L3.77732796,34.7717866 C3.82049301,34.8401691 3.8879668,34.8878779 3.96748136,34.9055983 C4.04699592,34.9235458 4.12855515,34.9092332 4.19693767,34.865841 L4.68742893,34.5543711 C4.75626583,34.5114332 4.80420175,34.4439594 4.82192214,34.3642177 C4.83964252,34.2851575 4.8253299,34.2033711 4.78216485,34.1349885 L3.76733184,32.5335652 C3.74211437,32.4940351 3.75392796,32.4411012 3.79368524,32.4161109 L4.48546194,31.9774177 C4.50454544,31.9651497 4.52749107,31.9617419 4.54930078,31.9665128 C4.57179204,31.9717381 4.59064835,31.9853691 4.60291631,32.0042254 L5.35058039,33.1844487 C5.44009107,33.3259847 5.62842699,33.3684682 5.77041728,33.2787303 L6.23978039,32.9813458 C6.3815435,32.8913808 6.42357262,32.7030449 6.33383476,32.5615089 L5.58639786,31.3812856 C5.5741299,31.3622021 5.57026777,31.3392565 5.57526583,31.3172196 C5.58026388,31.2947283 5.59344058,31.2756449 5.61252408,31.2638313 L6.13777456,30.9312332 C6.15708524,30.9189652 6.18003087,30.9146487 6.20206777,30.919874 C6.22455903,30.9250992 6.24318816,30.9382759 6.25545612,30.9575866 L7.27006194,32.5590099 C7.31368136,32.6271652 7.38138233,32.674874 7.46066971,32.6930487 C7.54018427,32.7105419 7.6217435,32.6966837 7.68989883,32.6532915 L8.18061728,32.3420487 C8.32238039,32.2523109 8.36440951,32.0637478 8.27489883,31.9222118 L6.73436097,29.4902021 C6.64098816,29.3525283 6.45855903,29.3143614 6.31884058,29.4025089" id="Fill-25"></path>
                    <path d="M43.1784979,24.0236668 C42.7273095,23.9636901 42.4090241,23.5479425 42.4678649,23.0962998 C42.5276144,22.6453386 42.9429076,22.326826 43.3945503,22.3861212 C43.8455115,22.4456435 44.1647056,22.8611639 44.1042746,23.3123522 C44.0454338,23.7635406 43.630595,24.0827348 43.1784979,24.0236668 M43.1521445,24.2256338 C43.714426,24.2996959 44.2324066,23.9018959 44.3062416,23.3389328 C44.3800765,22.7764241 43.984094,22.2584435 43.4209037,22.1841542 C42.8588493,22.1098649 42.3406416,22.5072105 42.2665794,23.0699464 C42.1920629,23.6320008 42.5898629,24.1517988 43.1521445,24.2256338" id="Fill-27"></path>
                    <path d="M43.1907658,23.1218126 C43.1907658,23.1218126 43.1759988,23.2333602 43.1653212,23.3135563 C43.0930765,23.3037874 43.0253755,23.2947 42.9529037,23.2856126 C42.9633542,23.2054165 42.9783483,23.0934146 42.9783483,23.0934146 C42.9949328,22.9702806 43.0719483,22.9805039 43.1003464,22.984366 C43.1298804,22.9882282 43.2064416,22.9984515 43.1907658,23.1218126 Z M43.7721309,22.8344243 C43.7721309,22.8344243 43.5176843,22.9271155 43.4025017,22.9691447 C43.3627445,22.8501 43.2664183,22.768768 43.1301076,22.7508204 C42.9326843,22.7246942 42.7813794,22.8469194 42.7536629,23.054566 L42.7075445,23.4073835 C42.7011833,23.452366 42.7336707,23.4937136 42.7781988,23.4998476 L43.705793,23.6218456 C43.7505483,23.6279796 43.7918959,23.596401 43.7980299,23.5516456 L43.8068901,23.4807641 C43.8137056,23.4357816 43.7816726,23.3946612 43.7362357,23.3892087 C43.7362357,23.3892087 43.4972377,23.3576301 43.390461,23.3435447 C43.3979581,23.2894748 43.4018202,23.2578961 43.4074998,23.2185932 C43.4824707,23.1911039 43.8162047,23.0706961 43.8162047,23.0706961 C43.8455115,23.0602456 43.8655037,23.0350282 43.8705017,23.0043583 L43.8804979,22.9223447 C43.8839056,22.8937194 43.8739095,22.8655485 43.8507367,22.8471466 C43.8389231,22.8376049 43.825292,22.8321524 43.825292,22.8321524 L43.7721309,22.8344243 Z" id="Fill-29"></path>
                </g>
            </g>
        </g>
    </g>
</svg>