<?xml version="1.0" encoding="utf-8"?>
<!-- Generator: Adobe Illustrator 18.1.1, SVG Export Plug-In . SVG Version: 6.00 Build 0)  -->
<svg version="1.1" id="Layer_1" xmlns="http://www.w3.org/2000/svg" xmlns:xlink="http://www.w3.org/1999/xlink" x="0px" y="0px"
	 viewBox="460.3 395.9 270 50" enable-background="new 460.3 395.9 270 50" xml:space="preserve">
<g>
	<path fill="#231F20" d="M571,442.6h3.6v0.9H570v-7.6h1V442.6z"/>
	<path fill="#231F20" d="M576,439.7c0-2.2,1.5-3.8,3.7-3.8c2.2,0,3.7,1.7,3.7,3.8s-1.4,3.9-3.7,3.9S576,441.9,576,439.7z
		 M582.5,439.7c0-1.6-1-2.9-2.7-2.9c-1.8,0-2.7,1.3-2.7,2.9c0,1.7,1,3,2.7,3C581.5,442.7,582.5,441.5,582.5,439.7z"/>
	<path fill="#231F20" d="M592.6,443.5h-1.1l-4.4-5.9v5.9h-1v-7.6h1l4.5,6.1v-6.1h1V443.5L592.6,443.5z"/>
	<path fill="#231F20" d="M595.6,443.5v-7.6h2.6c2.1,0,3.7,1.5,3.7,3.8c0,2.4-1.5,3.8-3.7,3.8L595.6,443.5L595.6,443.5z M596.6,436.9
		v5.7h1.7c1.7,0,2.6-0.9,2.6-2.8c0-1.8-1.1-2.8-2.6-2.8L596.6,436.9L596.6,436.9z"/>
	<path fill="#231F20" d="M604,439.7c0-2.2,1.5-3.8,3.7-3.8s3.7,1.7,3.7,3.8s-1.4,3.9-3.7,3.9S604,441.9,604,439.7z M610.6,439.7
		c0-1.6-1-2.9-2.7-2.9c-1.8,0-2.7,1.3-2.7,2.9c0,1.7,1,3,2.7,3C609.6,442.7,610.6,441.5,610.6,439.7z"/>
	<path fill="#231F20" d="M620.6,443.5h-1.1l-4.4-5.9v5.9h-1v-7.6h1l4.5,6.1v-6.1h1V443.5z"/>
</g>
<g>
	<path fill="#231F20" d="M480.8,398.5V419h-1.9v-16.7l-6.8,13.1h-1.3l-6.6-13.1V419h-1.9v-20.5h1.9l7.4,14.1l7.4-14.1
		C478.9,398.5,480.8,398.5,480.8,398.5z"/>
	<path fill="#231F20" d="M499.8,413.5h-10.5l-2.1,5.5h-2l8.1-20.5h2.6l8.1,20.5h-2.1L499.8,413.5z M490,411.8h9.2l-4.6-11.6
		L490,411.8z"/>
	<path fill="#231F20" d="M522.2,404.2c0,3.4-2.4,5.5-5.5,5.9l6.8,8.8h-2.3l-6.8-8.8H510v8.8H508v-20.4h7
		C519.8,398.5,522.2,400.6,522.2,404.2z M510.2,400.3v8.2h5.5c3.2,0,4.7-1.9,4.7-4.3c0-1.9-1-3.8-4.9-3.8L510.2,400.3L510.2,400.3z"
		/>
	<path fill="#231F20" d="M533.9,407.6l9.4,11.5h-2.4l-8.4-10.1l-2.7,2.8v7.2h-1.9v-20.5h1.9v10.8l10.3-10.8h2.4L533.9,407.6z"/>
	<path fill="#231F20" d="M559.1,402.9l-1.7,0.6c-0.7-2.1-2.6-3.5-5.1-3.5c-2.8,0-4.6,1.4-4.6,3.7c0,5.1,11.7,2.4,11.7,9.6
		c0,3.4-2.9,5.9-6.8,5.9c-3.7,0-6.4-1.5-7.9-4.6l1.6-1c0.9,1.9,2.5,3.8,6.4,3.8c3.1,0,5-1.7,5-4.1c0-5.2-11.8-2.6-11.8-9.6
		c0-4.1,3.7-5.5,6.4-5.5C555.4,398.3,558.1,399.6,559.1,402.9z"/>
	<path fill="#231F20" d="M583.3,419.3l-3.4-3.6c-1.3,1.9-3.1,3.3-5.7,3.3c-3.5,0-6.1-2.4-6.1-5.5c0-2.5,1.5-4,4.5-5.7
		c-1.7-1.7-2.6-3.1-2.6-4.7c0-2.4,2-4.3,4.5-4.3c2.6,0,4.6,1.9,4.6,4.3c0,2.3-1.8,3.9-3.7,5.1l4.2,4.6l2.5-4l1.5,0.9l-2.7,4.4l3.7,4
		L583.3,419.3z M573.8,409c-2.6,1.5-3.8,2.6-3.8,4.4c0,2.1,1.9,3.8,4.2,3.8c2.1,0,3.3-1.1,4.4-3L573.8,409z M571.8,402.9
		c0,1.1,0.8,2.1,2.4,3.9c1.9-1.1,3-2.3,3-3.9c0-1.5-1-2.7-2.8-2.7C572.9,400.2,571.8,401.5,571.8,402.9z"/>
	<path fill="#231F20" d="M606.6,402.9l-1.7,0.6c-0.7-2.1-2.6-3.5-5.1-3.5c-2.8,0-4.6,1.4-4.6,3.7c0,5.1,11.7,2.4,11.7,9.6
		c0,3.4-2.9,5.9-6.8,5.9c-3.7,0-6.4-1.5-7.9-4.6l1.6-1c0.9,1.9,2.5,3.8,6.4,3.8c3.1,0,5-1.7,5-4.1c0-5.2-11.8-2.6-11.8-9.6
		c0-4.1,3.7-5.5,6.4-5.5C602.8,398.3,605.5,399.6,606.6,402.9z"/>
	<path fill="#231F20" d="M626.8,404.4c0,3.9-3,6.1-6.6,6.1h-5.5v8.4h-1.9v-20.4h7C624.2,398.5,626.8,400.8,626.8,404.4z
		 M614.7,400.3v8.6h5.5c3.2,0,4.7-2.1,4.7-4.4c0-1.9-1-4-4.9-4L614.7,400.3L614.7,400.3L614.7,400.3z"/>
	<path fill="#231F20" d="M630.9,398.5h12.5v1.8h-10.6v7.3h9.8v1.8h-9.8v7.8h11.1v1.8h-13V398.5z"/>
	<path fill="#231F20" d="M666.5,419h-2.1l-12.9-17.2V419h-1.9v-20.5h1.9l13.1,17.6v-17.6h1.9V419L666.5,419z"/>
	<path fill="#231F20" d="M687.6,402.9c-1.5-1.8-3.3-2.9-6.1-2.9c-4.8,0-8.3,3.7-8.3,8.7c0,5,3.4,8.7,8.3,8.7c3.4,0,4.8-1.2,6.4-3
		l1.2,1.2c-1.5,1.8-3.6,3.5-7.7,3.5c-5.5,0-10.1-4.2-10.1-10.5c0-6.2,4.6-10.5,10.1-10.5c3.4,0,6.1,1.7,7.4,3.4L687.6,402.9z"/>
	<path fill="#231F20" d="M694.2,398.5h12.5v1.8h-10.6v7.3h9.8v1.8h-9.8v7.8h11.1v1.8h-13V398.5z"/>
	<path fill="#231F20" d="M726.9,404.2c0,3.4-2.4,5.5-5.5,5.9l6.8,8.8H726l-6.8-8.8h-4.5v8.8h-1.9v-20.4h7
		C724.4,398.5,726.9,400.6,726.9,404.2z M714.8,400.3v8.2h5.5c3.2,0,4.7-1.9,4.7-4.3c0-1.9-1-3.8-4.9-3.8L714.8,400.3L714.8,400.3z"
		/>
</g>
</svg>
